<?xml version="1.0" encoding="UTF-8"?><svg xmlns="http://www.w3.org/2000/svg" viewBox="0 0 369.7 673.87"><defs><style>.d{fill:#84BF04;}</style></defs><g id="a"/><g id="b"><g id="c"><path class="d" d="M363.13,653.79l-50.43,17.7c-2.96,3.9-10.81,1.07-14.13-2.54l-43.06-46.71c-1.14-1.24-2.65-2.08-4.3-2.39l-97.08-18.7c-3.89-.75-6.62-4.27-6.36-8.22l7.41-116.66c.18-2.81-1.16-5.5-3.5-7.05l-39.54-26.27c-3.19-2.12-7.44-1.63-10.07,1.15l-21.41,22.65c-4.89,5.17-13.59,1.71-13.59-5.4v-134.58c0-4.02-3.02-7.39-7.02-7.82l-49.05-5.34c-3.87-.42-6.85-3.61-7.01-7.5L.51,219.36c-.17-4.11,2.86-7.65,6.94-8.13l37.15-4.39c3.64-.43,7.09,1.71,8.33,5.15h0c2.65,7.36,13.24,6.77,15.06-.84l1.73-7.25c.19-.81,.51-1.58,.95-2.29l76.13-124.23c1.1-1.8,1.44-3.97,.92-6.02l-15.3-61.09c-1.26-5.04,2.62-9.9,7.81-9.78l172.04,3.96c2.02,.05,3.95,.87,5.38,2.3l49.25,49.25c1.97,1.97,2.75,4.84,2.05,7.54l-35.9,138.39c-.13,.49-.21,1-.24,1.51l-9.78,164.74c-.04,.69,0,1.38,.15,2.06l23.97,115.68c.16,.77,.25,1.65,.35,2.39l17.2,161.45c-.14,1.46-.68,2.85-1.57,4.01Z"/></g></g></svg>