<?xml version="1.0" encoding="UTF-8"?><svg xmlns="http://www.w3.org/2000/svg" viewBox="0 0 393.54 121.34"><defs><style>.d{fill:#4a7500;}.e{fill:#85bf03;}.f{fill:#71a702;}</style></defs><g id="a"/><g id="b"><g id="c"><g><g><path class="f" d="M249.94,119.23c.95-2.44,6.52-10.01,9.49-13.96,1.2-1.6,2.58-3.06,4.11-4.35l8.95-7.56s-18.35,20.56-22.76,27.9l76.83-42.79,21.4-9.35-73.16,9.35c-11.12,13.52-20.94,27.07-24.85,40.75Z"/><path class="e" d="M291.34,87.21c-6.82,1.54-13.8,7.35-19.33,11.36-14.11,10.24-22.29,22.7-22.29,22.7,0,0,31.36-.13,34.67,0,21.28,.83,48.21-6.43,50.55-7.5,45.62-20.83,52.51-44.99,52.51-44.99,0,0,6.78-18.69,6.03-28.33l-17.86,7.68c-3.55,1.53-7.38,2.36-11.26,2.46l-45.73,1.16c-9.25,.24-18.38,2.05-26.96,5.38-8.44,3.27-13.8,5.92-17.51,8.23-4.82,3-8.07,7.57-12.37,14.24-2.58,4.17-5.95,11.51-7.5,17.74l-4.35,21.93s11.77-28.91,28.99-34.74c13.8-6.68,23.96-9.71,33.13-10.69,2.25-.24,30.97-3.38,33.13-4.01l-20.71,6.01"/></g><g><path class="d" d="M1.79,44.97c-.6,0-1.08-.25-1.44-.75-.36-.5-.44-1.03-.24-1.59L13.78,3.72c.28-.76,.75-1.37,1.41-1.83,.66-.46,1.39-.69,2.19-.69s1.53,.23,2.19,.69c.66,.46,1.13,1.07,1.41,1.83l13.61,38.85c.2,.6,.12,1.15-.24,1.65-.36,.5-.84,.75-1.44,.75-.8,0-1.51-.23-2.13-.69-.62-.46-1.05-1.05-1.29-1.77l-3.18-9.83c-.12-.32-.36-.48-.72-.48H8.98c-.32,0-.54,.16-.66,.48l-3.3,9.95c-.24,.72-.65,1.29-1.23,1.71-.58,.42-1.25,.63-2.01,.63ZM17.2,5.58l-7.31,22.3c-.04,.12-.02,.23,.06,.33,.08,.1,.18,.15,.3,.15h14.09c.12,0,.21-.05,.27-.15,.06-.1,.09-.21,.09-.33L17.37,5.58s-.02-.06-.06-.06c-.08,0-.12,.02-.12,.06Z"/><path class="d" d="M50.47,44.97c-3.64,0-6.57-1.41-8.78-4.23-2.22-2.82-3.33-6.75-3.33-11.78,0-5.32,1.11-9.27,3.33-11.87,2.22-2.6,5.15-3.9,8.78-3.9,4.04,0,7.33,1.66,9.89,4.98,.04,.04,.08,.06,.12,.06s.06-.02,.06-.06l.06-2.22c0-.6,.21-1.11,.63-1.53,.42-.42,.93-.63,1.53-.63s1.11,.21,1.53,.63,.63,.93,.63,1.53v27.22c0,5.4-1.16,9.34-3.48,11.84-2.32,2.5-5.96,3.75-10.91,3.75-2.48,0-4.76-.26-6.83-.78-1.28-.32-1.92-1.16-1.92-2.52,0-.48,.19-.87,.57-1.17,.38-.3,.79-.37,1.23-.21,2.24,.72,4.56,1.08,6.96,1.08,3.48,0,5.99-.92,7.53-2.76,1.54-1.84,2.31-4.86,2.31-9.05v-2.94s-.02-.06-.06-.06-.08,.02-.12,.06c-2.44,3.04-5.68,4.56-9.71,4.56Zm1.2-28.18c-5.8,0-8.69,4.06-8.69,12.17,0,4.04,.77,7.12,2.31,9.23,1.54,2.12,3.67,3.18,6.39,3.18,2.32,0,4.35-.86,6.09-2.58,1.74-1.72,2.61-3.78,2.61-6.18v-6.96c0-2.4-.87-4.48-2.61-6.24-1.74-1.76-3.77-2.64-6.09-2.64Z"/><path class="d" d="M78.02,44.25c-.46,.48-1.03,.72-1.71,.72s-1.25-.24-1.71-.72c-.46-.48-.69-1.04-.69-1.68V16.07c0-.64,.22-1.18,.66-1.62,.44-.44,.98-.66,1.62-.66s1.18,.22,1.62,.66c.44,.44,.66,.98,.66,1.62v4.62s.02,.06,.06,.06c.08,0,.12-.04,.12-.12,1.2-2,2.89-3.61,5.07-4.83,2.18-1.22,4.63-1.89,7.34-2.01,.56-.04,1.04,.14,1.44,.54,.4,.4,.6,.88,.6,1.44,0,.52-.19,.98-.57,1.38-.38,.4-.85,.62-1.41,.66-3.96,.16-7.02,1.31-9.17,3.45-2.16,2.14-3.24,5.13-3.24,8.96v12.35c0,.64-.23,1.2-.69,1.68Z"/><path class="d" d="M122.36,41.31c-2.52,2.84-6.02,4.26-10.49,4.26s-7.97-1.42-10.49-4.26c-2.52-2.84-3.78-6.81-3.78-11.93s1.26-9.09,3.78-11.93c2.52-2.84,6.02-4.26,10.49-4.26s7.97,1.42,10.49,4.26c2.52,2.84,3.78,6.82,3.78,11.93s-1.26,9.09-3.78,11.93Zm-.9-11.93c0-8.39-3.2-12.59-9.59-12.59s-9.59,4.2-9.59,12.59,3.2,12.59,9.59,12.59,9.59-4.2,9.59-12.59Z"/><path class="d" d="M132.73,18.59c-.52,0-.95-.17-1.29-.51-.34-.34-.51-.77-.51-1.29s.17-.95,.51-1.29c.34-.34,.77-.51,1.29-.51h4.38c.36,0,.54-.18,.54-.54V5.88c0-.64,.22-1.18,.66-1.62,.44-.44,.98-.66,1.62-.66s1.18,.22,1.62,.66c.44,.44,.66,.98,.66,1.62V14.45c0,.36,.18,.54,.54,.54h8.99c.52,0,.95,.17,1.29,.51,.34,.34,.51,.77,.51,1.29s-.17,.95-.51,1.29c-.34,.34-.77,.51-1.29,.51h-8.99c-.36,0-.54,.18-.54,.54v15.83c0,2.88,.38,4.77,1.14,5.67,.76,.9,2.22,1.35,4.38,1.35,1.28,0,2.34-.1,3.18-.3,.44-.08,.85,.01,1.23,.27,.38,.26,.57,.61,.57,1.05,0,.56-.17,1.06-.51,1.5-.34,.44-.77,.7-1.29,.78-1.04,.2-2.36,.3-3.96,.3-3.52,0-5.95-.73-7.29-2.19-1.34-1.46-2.01-4.13-2.01-8V19.13c0-.36-.18-.54-.54-.54h-4.38Z"/><path class="d" d="M184.6,41.31c-2.52,2.84-6.02,4.26-10.49,4.26s-7.97-1.42-10.49-4.26c-2.52-2.84-3.78-6.81-3.78-11.93s1.26-9.09,3.78-11.93c2.52-2.84,6.02-4.26,10.49-4.26s7.97,1.42,10.49,4.26c2.52,2.84,3.78,6.82,3.78,11.93s-1.26,9.09-3.78,11.93Zm-.9-11.93c0-8.39-3.2-12.59-9.59-12.59s-9.59,4.2-9.59,12.59,3.2,12.59,9.59,12.59,9.59-4.2,9.59-12.59Z"/><path class="d" d="M205.04,45.57c-3.48,0-6.03-.96-7.64-2.88-1.62-1.92-2.43-5.1-2.43-9.53V16.07c0-.64,.21-1.18,.63-1.62,.42-.44,.95-.66,1.59-.66s1.18,.22,1.62,.66c.44,.44,.66,.98,.66,1.62v16.49c0,3.6,.54,6.07,1.62,7.4,1.08,1.34,2.8,2.01,5.16,2.01,2.16,0,4.2-.93,6.12-2.79,1.92-1.86,2.88-3.89,2.88-6.09V16.07c0-.64,.23-1.18,.69-1.62,.46-.44,1.01-.66,1.65-.66s1.18,.22,1.62,.66c.44,.44,.66,.98,.66,1.62v26.74c0,.6-.21,1.11-.63,1.53-.42,.42-.93,.63-1.53,.63s-1.12-.21-1.56-.63c-.44-.42-.66-.93-.66-1.53v-2.46s-.02-.06-.06-.06-.08,.02-.12,.06c-2.76,3.48-6.18,5.22-10.25,5.22Z"/><path class="d" d="M232.95,44.25c-.46,.48-1.03,.72-1.71,.72s-1.25-.24-1.71-.72c-.46-.48-.69-1.04-.69-1.68V16.07c0-.64,.22-1.18,.66-1.62,.44-.44,.98-.66,1.62-.66s1.18,.22,1.62,.66c.44,.44,.66,.98,.66,1.62v4.62s.02,.06,.06,.06c.08,0,.12-.04,.12-.12,1.2-2,2.89-3.61,5.07-4.83,2.18-1.22,4.63-1.89,7.34-2.01,.56-.04,1.04,.14,1.44,.54,.4,.4,.6,.88,.6,1.44,0,.52-.19,.98-.57,1.38-.38,.4-.85,.62-1.41,.66-3.96,.16-7.02,1.31-9.17,3.45-2.16,2.14-3.24,5.13-3.24,8.96v12.35c0,.64-.23,1.2-.69,1.68Z"/><path class="d" d="M262.33,5.73c-.46,.46-1.03,.69-1.71,.69s-1.25-.23-1.71-.69c-.46-.46-.69-1.03-.69-1.71v-1.62c0-.64,.23-1.2,.69-1.68,.46-.48,1.03-.72,1.71-.72s1.25,.24,1.71,.72c.46,.48,.69,1.04,.69,1.68v1.62c0,.68-.23,1.25-.69,1.71Zm0,38.52c-.46,.48-1.03,.72-1.71,.72s-1.25-.24-1.71-.72c-.46-.48-.69-1.04-.69-1.68V16.19c0-.64,.23-1.2,.69-1.68,.46-.48,1.03-.72,1.71-.72s1.25,.24,1.71,.72c.46,.48,.69,1.04,.69,1.68v26.38c0,.64-.23,1.2-.69,1.68Z"/><path class="d" d="M284.31,31c-3.88-.92-6.65-2.11-8.3-3.57-1.66-1.46-2.49-3.35-2.49-5.67,0-2.64,.99-4.73,2.97-6.27,1.98-1.54,4.81-2.31,8.48-2.31,2.76,0,5.5,.36,8.21,1.08,1.24,.32,1.86,1.14,1.86,2.46,0,.48-.18,.84-.54,1.08-.36,.24-.78,.3-1.26,.18-2.64-.8-5.28-1.2-7.91-1.2-4.8,0-7.2,1.54-7.2,4.62,0,1.36,.48,2.49,1.44,3.39,.96,.9,2.7,1.63,5.22,2.19,4.32,.96,7.29,2.18,8.9,3.66,1.62,1.48,2.43,3.6,2.43,6.36s-1.03,4.78-3.09,6.3c-2.06,1.52-4.97,2.28-8.72,2.28-2.92,0-5.7-.44-8.33-1.32-1.24-.4-1.86-1.26-1.86-2.58,0-.44,.2-.79,.6-1.05,.4-.26,.82-.31,1.26-.15,2.6,1,5.26,1.5,7.97,1.5,5.04,0,7.55-1.66,7.55-4.98,0-1.44-.51-2.64-1.53-3.6s-2.91-1.76-5.67-2.4Z"/><path class="d" d="M308.17,44.31c-.44,.44-.98,.66-1.62,.66s-1.19-.22-1.65-.66c-.46-.44-.69-.98-.69-1.62V16.01c0-.6,.22-1.12,.66-1.56,.44-.44,.96-.66,1.56-.66s1.12,.22,1.56,.66c.44,.44,.66,.96,.66,1.56l.06,1.98s.02,.06,.06,.06c.08,0,.12-.04,.12-.12,2.28-3.16,5-4.74,8.15-4.74,1.92,0,3.47,.42,4.65,1.26,1.18,.84,2.15,2.24,2.91,4.2,0,.08,.02,.12,.06,.12,.08,0,.12-.04,.12-.12,2.24-3.64,5.16-5.46,8.75-5.46,3.2,0,5.51,.92,6.92,2.76,1.42,1.84,2.13,4.92,2.13,9.23v17.51c0,.64-.21,1.18-.63,1.62-.42,.44-.95,.66-1.59,.66s-1.18-.22-1.62-.66c-.44-.44-.66-.98-.66-1.62V26.38c0-3.72-.43-6.24-1.29-7.58-.86-1.34-2.37-2.01-4.53-2.01-1.48,0-2.94,.79-4.38,2.37-1.44,1.58-2.16,3.21-2.16,4.89v18.65c0,.64-.22,1.18-.66,1.62s-.98,.66-1.62,.66-1.18-.22-1.62-.66c-.44-.44-.66-.98-.66-1.62V26.38c0-3.72-.43-6.24-1.29-7.58-.86-1.34-2.35-2.01-4.47-2.01-1.48,0-2.95,.79-4.41,2.37-1.46,1.58-2.19,3.21-2.19,4.89v18.65c0,.64-.22,1.18-.66,1.62Z"/><path class="d" d="M364.23,45.57c-4.92,0-8.65-1.35-11.21-4.05-2.56-2.7-3.84-6.75-3.84-12.14s1.23-9.64,3.69-12.26c2.46-2.62,5.83-3.93,10.1-3.93,7.87,0,12.05,4.66,12.53,13.97,.04,.96-.29,1.77-.99,2.43-.7,.66-1.53,.99-2.49,.99h-17.75c-.32,0-.48,.18-.48,.54,.36,7.31,3.98,10.97,10.85,10.97,2.28,0,4.62-.42,7.02-1.26,.44-.16,.86-.11,1.26,.15,.4,.26,.6,.63,.6,1.11,0,1.36-.62,2.2-1.86,2.52-2.56,.64-5.04,.96-7.44,.96Zm-1.26-28.9c-5.56,0-8.59,3.3-9.11,9.89,0,.32,.18,.48,.54,.48h16.13c.32,0,.48-.16,.48-.48-.24-6.6-2.92-9.89-8.03-9.89Z"/></g><g><path d="M89.79,75.16c.19,0,.36,.07,.5,.21,.14,.14,.21,.31,.21,.5,0,.21-.07,.39-.21,.52-.14,.13-.31,.2-.5,.2h-13.1c-.21,0-.39-.07-.52-.21-.13-.14-.2-.31-.2-.5v-23.56c0-.19,.07-.36,.21-.5,.14-.14,.32-.21,.54-.21s.39,.07,.54,.21c.14,.14,.21,.31,.21,.5v23.49l-.64-.64h12.96Z"/><path d="M108.74,58.78c.21,0,.39,.07,.52,.21s.2,.31,.2,.5v16.38c0,.19-.07,.36-.21,.5-.14,.14-.31,.21-.5,.21-.21,0-.39-.07-.52-.21-.13-.14-.2-.31-.2-.5v-5.07l.57-.46c0,.76-.19,1.53-.57,2.32-.38,.79-.9,1.5-1.57,2.14-.67,.64-1.45,1.16-2.36,1.55-.91,.39-1.88,.59-2.93,.59-1.59,0-3.02-.42-4.27-1.25-1.25-.83-2.23-1.96-2.94-3.39s-1.07-3.03-1.07-4.82,.36-3.41,1.09-4.8c.72-1.39,1.71-2.49,2.96-3.28,1.25-.8,2.66-1.2,4.23-1.2,1.02,0,1.99,.18,2.89,.55,.9,.37,1.7,.89,2.37,1.55,.68,.67,1.21,1.45,1.59,2.34,.38,.89,.57,1.86,.57,2.91l-.57-.89v-5.18c0-.19,.07-.36,.2-.5s.3-.21,.52-.21Zm-7.5,16.81c1.33,0,2.52-.35,3.57-1.05,1.05-.7,1.87-1.67,2.46-2.89,.59-1.23,.89-2.61,.89-4.16s-.3-2.81-.89-4.02c-.6-1.2-1.42-2.15-2.46-2.86-1.05-.7-2.24-1.05-3.57-1.05s-2.49,.34-3.53,1.02-1.87,1.61-2.48,2.8c-.61,1.19-.91,2.56-.91,4.1s.3,2.93,.89,4.16c.59,1.23,1.42,2.19,2.46,2.89,1.05,.7,2.24,1.05,3.57,1.05Z"/><path d="M128.48,58.78c.21,0,.39,.07,.52,.21,.13,.14,.2,.31,.2,.5v10.39c0,2.31-.65,4.04-1.95,5.19-1.3,1.15-3.02,1.73-5.16,1.73s-3.83-.58-5.12-1.73c-1.3-1.15-1.95-2.88-1.95-5.19v-10.39c0-.19,.07-.36,.21-.5s.31-.21,.5-.21c.21,0,.39,.07,.52,.21,.13,.14,.2,.31,.2,.5v10.39c0,1.81,.51,3.19,1.52,4.14,1.01,.95,2.38,1.43,4.12,1.43s3.15-.48,4.16-1.43c1.01-.95,1.52-2.33,1.52-4.14v-10.39c0-.19,.07-.36,.2-.5,.13-.14,.3-.21,.52-.21Z"/><path d="M135.83,76.59c-.21,0-.39-.07-.52-.21-.13-.14-.2-.31-.2-.5v-16.38c0-.19,.07-.36,.21-.5s.31-.21,.5-.21c.21,0,.39,.07,.52,.21s.2,.31,.2,.5v6.03l-.61,.93c0-.93,.16-1.87,.48-2.82s.79-1.84,1.41-2.66c.62-.82,1.38-1.49,2.27-2,.89-.51,1.92-.77,3.09-.77,.33,0,.69,.05,1.07,.14,.38,.1,.57,.32,.57,.68,0,.21-.06,.39-.18,.54-.12,.14-.27,.21-.46,.21-.14,0-.32-.05-.52-.16-.2-.11-.49-.16-.87-.16-.76,0-1.51,.23-2.25,.68-.74,.45-1.41,1.05-2.02,1.8-.61,.75-1.09,1.56-1.45,2.44s-.54,1.74-.54,2.57v8.92c0,.19-.07,.36-.21,.5-.14,.14-.31,.21-.5,.21Z"/><path d="M155.5,76.95c-1.78,0-3.36-.38-4.73-1.14-1.37-.76-2.45-1.84-3.23-3.23-.79-1.39-1.18-3.03-1.18-4.91,0-2,.39-3.7,1.16-5.1,.77-1.4,1.77-2.48,3-3.23s2.53-1.12,3.91-1.12c1,0,1.97,.16,2.93,.48,.95,.32,1.8,.82,2.55,1.5,.75,.68,1.36,1.52,1.82,2.53,.46,1.01,.72,2.22,.77,3.62,0,.19-.07,.36-.21,.52-.14,.15-.31,.23-.5,.23h-14.56l-.21-1.36h14.38l-.36,.32v-.64c-.12-1.26-.52-2.32-1.2-3.18-.68-.86-1.49-1.5-2.45-1.95-.95-.44-1.94-.66-2.96-.66-.71,0-1.46,.16-2.25,.48-.79,.32-1.51,.81-2.18,1.46s-1.21,1.48-1.62,2.48c-.42,1-.62,2.17-.62,3.5,0,1.45,.29,2.78,.88,4,.58,1.21,1.45,2.19,2.61,2.93,1.15,.74,2.57,1.11,4.26,1.11,.81,0,1.57-.14,2.28-.41s1.36-.64,1.93-1.09c.57-.45,1.04-.94,1.39-1.46,.19-.21,.39-.32,.61-.32,.17,0,.31,.07,.43,.2,.12,.13,.18,.28,.18,.45s-.05,.31-.14,.43c-.74,.95-1.68,1.78-2.84,2.5s-2.43,1.07-3.84,1.07Z"/><path d="M175.41,58.21c1.5,0,2.72,.3,3.66,.89,.94,.6,1.63,1.4,2.07,2.43,.44,1.02,.66,2.17,.66,3.43v10.92c0,.19-.07,.36-.21,.5-.14,.14-.31,.21-.5,.21-.21,0-.39-.07-.52-.21-.13-.14-.2-.31-.2-.5v-10.78c0-1.02-.17-1.95-.52-2.78-.35-.83-.89-1.5-1.64-2-.75-.5-1.73-.75-2.94-.75-1.05,0-2.07,.25-3.07,.75-1,.5-1.83,1.17-2.48,2-.66,.83-.98,1.76-.98,2.78v10.78c0,.19-.07,.36-.21,.5-.14,.14-.31,.21-.5,.21-.21,0-.39-.07-.52-.21-.13-.14-.2-.31-.2-.5v-16.38c0-.19,.07-.36,.21-.5s.31-.21,.5-.21c.21,0,.39,.07,.52,.21,.13,.14,.2,.31,.2,.5v3.5l-.89,1.71c0-.86,.23-1.68,.68-2.46s1.05-1.48,1.78-2.09c.74-.61,1.55-1.08,2.45-1.43,.89-.34,1.78-.52,2.66-.52Z"/><path d="M186.09,58.64h8.28c.19,0,.35,.07,.48,.21,.13,.14,.2,.3,.2,.46,0,.19-.07,.35-.2,.48-.13,.13-.29,.2-.48,.2h-8.28c-.17,0-.32-.07-.46-.21-.14-.14-.21-.3-.21-.46,0-.19,.07-.35,.21-.48,.14-.13,.3-.2,.46-.2Zm3.64-5.25c.21,0,.39,.07,.52,.21,.13,.14,.2,.31,.2,.5v18.6c0,.79,.1,1.36,.3,1.73,.2,.37,.46,.61,.77,.71,.31,.11,.61,.16,.89,.16,.17,0,.31-.02,.43-.07,.12-.05,.26-.07,.43-.07s.31,.07,.43,.2c.12,.13,.18,.28,.18,.45,0,.21-.14,.4-.41,.55s-.61,.23-1.02,.23c-.14,0-.4,0-.77-.02-.37-.01-.76-.12-1.18-.32s-.77-.57-1.05-1.11c-.29-.54-.43-1.33-.43-2.37v-18.67c0-.19,.07-.36,.21-.5,.14-.14,.31-.21,.5-.21Z"/><path d="M199.72,55.78c-.38,0-.68-.11-.91-.32-.23-.21-.34-.49-.34-.82v-.29c0-.33,.12-.61,.36-.82,.24-.21,.55-.32,.93-.32,.33,0,.61,.11,.84,.32,.22,.21,.34,.49,.34,.82v.29c0,.33-.11,.61-.34,.82-.23,.21-.52,.32-.88,.32Zm.71,20.09c0,.19-.07,.36-.21,.5-.14,.14-.31,.21-.5,.21-.21,0-.39-.07-.52-.21-.13-.14-.2-.31-.2-.5v-16.95c0-.19,.07-.36,.21-.5,.14-.14,.31-.21,.5-.21,.21,0,.39,.07,.52,.21,.13,.14,.2,.31,.2,.5v16.95Z"/><path d="M221.1,50.18c.21,0,.39,.07,.52,.21,.13,.14,.2,.31,.2,.5v24.98c0,.19-.07,.36-.21,.5-.14,.14-.31,.21-.5,.21-.21,0-.39-.07-.52-.21-.13-.14-.2-.31-.2-.5v-5.07l.57-.79c0,.81-.18,1.62-.55,2.44s-.89,1.57-1.57,2.25c-.68,.68-1.47,1.22-2.37,1.62-.91,.4-1.88,.61-2.93,.61-1.57,0-2.98-.41-4.23-1.23-1.25-.82-2.24-1.94-2.96-3.35-.73-1.42-1.09-3.02-1.09-4.8s.36-3.38,1.09-4.8c.72-1.42,1.71-2.53,2.96-3.34,1.25-.81,2.66-1.21,4.23-1.21,.98,0,1.91,.18,2.8,.55,.89,.37,1.68,.89,2.37,1.55,.69,.67,1.24,1.45,1.64,2.34,.4,.89,.61,1.86,.61,2.91l-.57-.89v-13.78c0-.19,.06-.36,.2-.5,.13-.14,.3-.21,.52-.21Zm-7.49,25.41c1.36,0,2.55-.34,3.59-1.04,1.04-.69,1.85-1.64,2.45-2.85,.59-1.21,.89-2.59,.89-4.14s-.3-2.92-.89-4.12-1.42-2.15-2.46-2.84c-1.05-.69-2.24-1.03-3.57-1.03s-2.49,.35-3.53,1.03c-1.05,.69-1.87,1.64-2.48,2.84s-.91,2.58-.91,4.12,.3,2.89,.91,4.1c.61,1.21,1.43,2.17,2.48,2.87,1.05,.7,2.22,1.05,3.53,1.05Z"/><path d="M235.77,76.95c-1.79,0-3.36-.38-4.73-1.14-1.37-.76-2.45-1.84-3.23-3.23-.79-1.39-1.18-3.03-1.18-4.91,0-2,.39-3.7,1.16-5.1,.77-1.4,1.77-2.48,3-3.23,1.22-.75,2.53-1.12,3.91-1.12,1,0,1.97,.16,2.93,.48,.95,.32,1.8,.82,2.55,1.5s1.36,1.52,1.82,2.53c.46,1.01,.72,2.22,.77,3.62,0,.19-.07,.36-.21,.52-.14,.15-.31,.23-.5,.23h-14.56l-.21-1.36h14.38l-.36,.32v-.64c-.12-1.26-.52-2.32-1.2-3.18-.68-.86-1.49-1.5-2.44-1.95-.95-.44-1.94-.66-2.96-.66-.71,0-1.46,.16-2.25,.48-.79,.32-1.51,.81-2.18,1.46-.67,.65-1.21,1.48-1.62,2.48s-.62,2.17-.62,3.5c0,1.45,.29,2.78,.87,4,.58,1.21,1.45,2.19,2.61,2.93,1.15,.74,2.58,1.11,4.27,1.11,.81,0,1.57-.14,2.28-.41s1.36-.64,1.93-1.09c.57-.45,1.04-.94,1.39-1.46,.19-.21,.39-.32,.61-.32,.17,0,.31,.07,.43,.2,.12,.13,.18,.28,.18,.45s-.05,.31-.14,.43c-.74,.95-1.68,1.78-2.84,2.5-1.15,.71-2.43,1.07-3.84,1.07Z"/><path d="M246.58,73.73c-.17-.29-.24-.52-.23-.7,.01-.18,.1-.33,.27-.45,.12-.12,.28-.17,.48-.16,.2,.01,.38,.1,.52,.27,.62,.88,1.41,1.59,2.37,2.14,.96,.55,2.1,.82,3.41,.82,.79,0,1.54-.13,2.27-.39,.73-.26,1.32-.65,1.78-1.18,.46-.52,.7-1.17,.7-1.93,0-.81-.23-1.46-.68-1.95-.45-.49-1.04-.87-1.75-1.16-.71-.29-1.46-.52-2.25-.71-.83-.21-1.62-.46-2.37-.73-.75-.27-1.41-.62-1.98-1.04-.57-.42-1.02-.91-1.36-1.48-.33-.57-.5-1.25-.5-2.03,0-.93,.25-1.76,.75-2.5,.5-.74,1.2-1.31,2.11-1.73,.9-.42,1.95-.62,3.14-.62,.57,0,1.18,.07,1.82,.21,.64,.14,1.28,.39,1.93,.73,.64,.35,1.24,.83,1.79,1.45,.19,.14,.28,.32,.27,.52-.01,.2-.1,.39-.27,.55-.14,.1-.3,.14-.46,.14s-.31-.07-.43-.21c-.62-.69-1.34-1.2-2.16-1.53-.82-.33-1.7-.5-2.62-.5-.79,0-1.52,.13-2.19,.39s-1.23,.65-1.66,1.16c-.43,.51-.64,1.16-.64,1.95,.05,.74,.3,1.34,.77,1.82,.46,.48,1.08,.87,1.86,1.18,.77,.31,1.65,.6,2.62,.86,.79,.19,1.52,.41,2.2,.66s1.27,.57,1.79,.95c.51,.38,.92,.86,1.21,1.43,.3,.57,.45,1.28,.45,2.14,0,1-.27,1.86-.8,2.59-.54,.73-1.27,1.29-2.21,1.68s-2.02,.59-3.23,.59-2.43-.25-3.57-.75-2.18-1.32-3.11-2.46Z"/></g></g></g></g></svg>