<?xml version="1.0" encoding="UTF-8"?><svg xmlns="http://www.w3.org/2000/svg" viewBox="0 0 469.98 367.01"><defs><style>.d{fill:#84bf04;}</style></defs><g id="a"/><g id="b"><g id="c"><path class="d" d="M171.66,.73l58.42,21.75c6.61,2.46,9.51,10.21,6.15,16.41l-52.23,96.21c-3.19,5.87-.77,13.21,5.28,16.04l31.52,14.74c5.57,2.61,12.21,.41,15.13-5l25.93-48.07c2.21-4.1,6.67-6.48,11.31-6.04l186.32,17.78c5.95,.57,10.5,5.57,10.5,11.55v6.62c0,6.1-4.73,11.16-10.81,11.57l-54.97,3.75c-5.24,.36-9.58,4.19-10.59,9.34l-30.36,154.75c-1.41,7.17,4.08,13.83,11.38,13.83h12.48c5.32,0,9.96,3.62,11.25,8.79h0c1.58,6.34-2.38,12.74-8.76,14.14l-35.53,7.83c-1.88,.42-3.84,.35-5.7-.18L8.41,268.98c-7.44-2.14-10.74-10.82-6.6-17.36L157.81,5.39c2.93-4.63,8.71-6.58,13.85-4.66Z"/></g></g></svg>