<?xml version="1.0" encoding="UTF-8"?><svg xmlns="http://www.w3.org/2000/svg" viewBox="0 0 464.24 285"><defs><style>.d{fill:#84bf04;}</style></defs><g id="a"/><g id="b"><g id="c"><path class="d" d="M.34,163.55c6.38,24.72,29.79,88.55,39.42,114.49,2.22,5.98,9.15,8.69,14.84,5.81L458.38,79.55c5.74-2.91,7.63-10.19,4.03-15.52L422.26,4.7c-1.99-2.94-5.3-4.7-8.85-4.7h-66.77c-1.33,0-2.65,.25-3.88,.73l-54.16,21.14c-1.75,.68-3.29,1.81-4.46,3.28l-24,30.01c-1.82,2.27-4.48,3.7-7.38,3.97l-56.63,5.15c-1.21,.11-2.4,.43-3.51,.94L6.21,151.18c-4.69,2.16-7.16,7.36-5.87,12.36Z"/></g></g></svg>