<?xml version="1.0" encoding="UTF-8"?><svg xmlns="http://www.w3.org/2000/svg" viewBox="0 0 387.21 294.79"><defs><style>.d{fill:#84bf04;}</style></defs><g id="a"/><g id="b"><g id="c"><path class="d" d="M16.12,60.11L.12,135.02c-.26,1.24-.08,2.53,.52,3.65l66.44,124.15c.67,1.25,1.81,2.19,3.18,2.6l96.49,29.14c2.51,.76,5.19-.41,6.35-2.75l27.3-55.2c1.06-2.14,3.41-3.32,5.76-2.9l52.68,9.58c4.55,.83,5.99,6.65,2.34,9.49h0c-4.99,3.9-.28,11.7,5.49,9.11l117.38-52.67c2.33-1.05,3.6-3.6,3.03-6.09l-16.56-71.77c-.62-2.71-3.22-4.49-5.97-4.1l-39.91,5.62c-2.5,.35-4.91-1.09-5.78-3.46l-17.47-47.74c-.99-2.71,.34-5.71,3.01-6.8l26.98-10.99c2.96-1.21,4.21-4.72,2.68-7.52L304.9,2.8c-1.1-2.01-3.35-3.11-5.61-2.72l-101.59,17.45c-3.59,.62-5.53,4.55-3.84,7.77l7.2,13.71c1.82,3.46-.56,7.64-4.47,7.84L21.09,55.88c-2.42,.12-4.46,1.86-4.96,4.23Z"/></g></g></svg>