<?xml version="1.0" encoding="UTF-8"?><svg xmlns="http://www.w3.org/2000/svg" viewBox="0 0 506.78 399.58"><defs><style>.d{fill:#84bf04;}</style></defs><g id="a"/><g id="b"><g id="c"><path class="d" d="M129.81,397.12l-68.44-86.15c-1.82-2.29-4.96-3.09-7.65-1.93l-44.64,19.13c-5.25,2.25-10.63-2.87-8.66-8.22L63.38,149.3c.45-1.21,.52-2.53,.22-3.79l-9.8-40.25c-1-4.09,2.1-8.04,6.32-8.04h122.33c.48,0,.96-.05,1.43-.16l243.46-54.81c1.14-.26,2.2-.82,3.05-1.63L471.32,1.79c3.59-3.4,9.51-1.71,10.76,3.07l24.49,93.51c.64,2.44-.19,5.03-2.13,6.65l-108.83,90.48c-1.62,1.35-2.49,3.4-2.33,5.5l5.83,75.78c.21,2.73-1.32,5.3-3.82,6.43l-257.74,115.8c-2.71,1.22-5.9,.44-7.75-1.89Z"/></g></g></svg>