<?xml version="1.0" encoding="UTF-8"?><svg xmlns="http://www.w3.org/2000/svg" viewBox="0 0 514.35 348.53"><defs><style>.d{fill:#84bf04;}</style></defs><g id="a"/><g id="b"><g id="c"><path class="d" d="M58.38,187.5L.79,312.95c-1.96,4.27-.17,9.33,4.04,11.42l46.87,23.26c4.33,2.15,9.58,.35,11.69-4l57.82-119.3c1.62-3.35,5.2-5.29,8.89-4.84l85.58,10.56c1.68,.21,3.38-.08,4.9-.82l57.02-27.99c3.26-1.6,7.18-1,9.82,1.5l33.49,31.78c3.47,3.29,8.95,3.16,12.26-.29L511.93,47.78c3.52-3.67,3.15-9.57-.81-12.78L470.28,1.94c-2.43-1.97-5.72-2.48-8.63-1.34l-109.25,42.64c-3.56,1.39-5.8,4.95-5.51,8.76l2.02,26.47c.29,3.81-1.93,7.36-5.49,8.75l-82.53,32.46c-6.22,2.45-12.76-2.75-11.78-9.36l2.35-15.94c.62-4.19-1.88-8.22-5.91-9.53l-59.85-19.5c-3.86-1.26-8.08,.32-10.16,3.81l-63.16,105.92c-4.28,7.18-15.24,4.77-16.12-3.54h0c-.74-7.01-9.07-10.28-14.38-5.63l-21.32,18.69c-.92,.81-1.66,1.8-2.17,2.91Z"/></g></g></svg>