<svg xmlns="http://www.w3.org/2000/svg" viewBox="0 0 120 120"><defs><style>.cls-1{fill:#494949;}.cls-2{opacity:0.14;}.cls-3{fill:none;stroke:#757575;stroke-miterlimit:10;stroke-width:3px;}.cls-4{fill:#fff;}</style></defs><g id="Calque_2" data-name="Calque 2"><g id="Calque_1-2" data-name="Calque 1"><rect class="cls-1" width="120" height="120"/><g class="cls-2"><line class="cls-3" x1="13.72" y1="13.72" x2="106.28" y2="106.28"/><line class="cls-3" x1="106.28" y1="13.72" x2="13.72" y2="106.28"/></g><path class="cls-4" d="M30.12,67.43H24V37.67h6.13Z"/><path class="cls-4" d="M43.81,37.67l7.65,21.58,7.6-21.58h8V67.43H61V59.3l.61-14-8,22.18H49.33l-8-22.15.61,14v8.13H35.8V37.67Z"/><path class="cls-4" d="M96,63.67a10.53,10.53,0,0,1-4.68,3.07,19.58,19.58,0,0,1-6.7,1.1,13.22,13.22,0,0,1-6.78-1.69,11.17,11.17,0,0,1-4.49-4.89,17.23,17.23,0,0,1-1.63-7.54v-2A18.28,18.28,0,0,1,73.23,44a11.07,11.07,0,0,1,4.34-5,12.46,12.46,0,0,1,6.63-1.73c3.53,0,6.28.85,8.27,2.53A10.79,10.79,0,0,1,96,47.14H90a5.87,5.87,0,0,0-1.81-3.74,5.76,5.76,0,0,0-3.85-1.19,5.43,5.43,0,0,0-4.76,2.35Q78,46.92,78,51.55v1.9c0,3.12.6,5.48,1.78,7.07A6.07,6.07,0,0,0,85,62.91q3.47,0,4.93-1.47V56.31H84.3V51.79H96Z"/><path class="cls-4" d="M30.82,71.7H28.28v6.92H26.57V71.7H24.06V70.32h6.76Z"/><path class="cls-4" d="M36.79,75H33.51v2.23h3.85v1.37H31.8v-8.3h5.55V71.7H33.51v2h3.28Z"/><path class="cls-4" d="M40.6,70.32l2.14,6,2.12-6h2.25v8.3H45.39V76.35l.17-3.92-2.24,6.19H42.14l-2.23-6.18.17,3.91v2.27H38.37v-8.3Z"/><path class="cls-4" d="M50.31,75.7v2.92H48.6v-8.3h3.24a3.77,3.77,0,0,1,1.65.34,2.57,2.57,0,0,1,1.09,1A2.76,2.76,0,0,1,55,73.07,2.4,2.4,0,0,1,54.13,75a3.5,3.5,0,0,1-2.32.71Zm0-1.39h1.53a1.54,1.54,0,0,0,1-.32,1.18,1.18,0,0,0,.35-.91,1.37,1.37,0,0,0-.36-1,1.36,1.36,0,0,0-1-.39H50.31Z"/><path class="cls-4" d="M63,74.66a5,5,0,0,1-.44,2.15,3.25,3.25,0,0,1-1.24,1.42,3.36,3.36,0,0,1-1.85.51,3.45,3.45,0,0,1-1.84-.5,3.22,3.22,0,0,1-1.25-1.42,4.9,4.9,0,0,1-.46-2.12v-.41a4.93,4.93,0,0,1,.45-2.16,3.24,3.24,0,0,1,1.25-1.43,3.43,3.43,0,0,1,1.84-.5,3.49,3.49,0,0,1,1.85.5,3.37,3.37,0,0,1,1.25,1.43A5.08,5.08,0,0,1,63,74.29Zm-1.74-.38a3.49,3.49,0,0,0-.46-2,1.66,1.66,0,0,0-2.67,0,3.41,3.41,0,0,0-.47,2v.41a3.46,3.46,0,0,0,.47,2,1.64,1.64,0,0,0,2.67,0,3.56,3.56,0,0,0,.46-2Z"/><path class="cls-4" d="M67.28,75.58H65.91v3H64.2v-8.3h3.09a3.55,3.55,0,0,1,2.27.65,2.29,2.29,0,0,1,.8,1.86,2.33,2.33,0,0,1-1.49,2.32l1.8,3.39v.08H68.83ZM65.91,74.2h1.38a1.42,1.42,0,0,0,1-.33,1.16,1.16,0,0,0,.35-.91,1.25,1.25,0,0,0-.33-.92,1.39,1.39,0,0,0-1-.34H65.91Z"/><path class="cls-4" d="M76.34,76.91h-3l-.57,1.71H71l3.1-8.3h1.58l3.11,8.3H76.92Zm-2.53-1.39h2.07l-1-3.1Z"/><path class="cls-4" d="M81.33,78.62H79.62v-8.3h1.71Z"/><path class="cls-4" d="M86,75.58H84.63v3H82.92v-8.3H86a3.55,3.55,0,0,1,2.27.65,2.28,2.28,0,0,1,.79,1.86,2.31,2.31,0,0,1-1.48,2.32l1.8,3.39v.08H87.55ZM84.63,74.2H86a1.42,1.42,0,0,0,1-.33,1.16,1.16,0,0,0,.35-.91A1.25,1.25,0,0,0,87,72a1.39,1.39,0,0,0-1-.34H84.63Z"/><path class="cls-4" d="M95.37,75H92.09v2.23h3.85v1.37H90.38v-8.3h5.55V71.7H92.09v2h3.28Z"/></g></g></svg>